<?xml version="1.0" standalone="no"?>
<!DOCTYPE svg PUBLIC "-//W3C//DTD SVG 20010904//EN"
 "http://www.w3.org/TR/2001/REC-SVG-20010904/DTD/svg10.dtd">
<svg version="1.0" xmlns="http://www.w3.org/2000/svg"
 width="280.000000pt" height="280.000000pt" viewBox="0 0 280.000000 280.000000"
 preserveAspectRatio="xMidYMid meet">
<metadata>
Created by potrace 1.11, written by Peter Selinger 2001-2013
</metadata>
<g transform="translate(0.000000,280.000000) scale(0.100000,-0.100000)"
fill="#000000" stroke="none">
<path d="M1200 2543 c-68 -11 -202 -48 -265 -74 -279 -111 -513 -346 -626
-627 -58 -147 -77 -252 -78 -427 0 -168 19 -268 78 -416 131 -328 412 -579
756 -675 94 -27 112 -29 295 -29 185 0 200 2 293 28 119 34 197 69 301 132 92
56 92 55 204 166 151 148 239 298 300 511 24 86 26 108 27 283 0 117 -5 205
-12 230 -67 228 -107 317 -199 442 -180 243 -421 392 -734 453 -45 9 -292 11
-340 3z m17 -335 c-3 -7 -5 -2 -5 12 0 14 2 19 5 13 2 -7 2 -19 0 -25z m490
-65 c-3 -10 -5 -2 -5 17 0 19 2 27 5 18 2 -10 2 -26 0 -35z m-650 -25 c-3 -8
-6 -5 -6 6 -1 11 2 17 5 13 3 -3 4 -12 1 -19z m-337 -1092 c0 -3 -4 -8 -10
-11 -5 -3 -10 -1 -10 4 0 6 5 11 10 11 6 0 10 -2 10 -4z m397 -218 c-3 -8 -6
-5 -6 6 -1 11 2 17 5 13 3 -3 4 -12 1 -19z"/>
</g>
</svg>
